<svg xmlns="http://www.w3.org/2000/svg" width="137" height="40" fill="none" viewBox="0 0 137 40">
    <path fill="#fff" fill-rule="evenodd" d="M83.884 8.153v4.74c-.026.457-.231.887-.575 1.202-1.597 1.25-3.598 1.912-5.65 1.87-4.823 0-8.246-2.67-8.246-7.969 0-4.496 3.605-7.995 8.452-7.995 1.941-.025 3.818.677 5.238 1.96 1.4 1.336-.622 3.316-1.998 2.136-.858-.848-2.016-1.35-3.24-1.403-3.017.005-5.461 2.373-5.466 5.296 0 3.296 2.25 5.3 5.26 5.3 1.228.025 2.434-.326 3.446-1.003v-2.72h-3.447c-2.043 0-1.837-2.713 0-2.713h4.593c.852-.015 1.633.609 1.633 1.299zm21.199 6.9c.826 1.737 3.605.36 2.666-1.38l-6.48-12.486c-.574-1.226-2.229-1.18-2.848 0l-6.582 12.486c-.2.377-.236.817-.097 1.22.138.401.439.732.833.917.829.156 1.678 0 2.046-.757l.988-1.96h8.463l1.011 1.96zM99.846 4.64l2.597 5.508h-5.42l2.823-5.508zm28.743 15.524c3.943.197 8.077 2.838 8.077 8.013 0 5.174-4.125 7.862-8.077 7.862-4.171.174-8.497-2.51-8.497-7.862s4.329-8.013 8.497-8.013zm5.115 8.013c0-3.45-2.77-5.175-5.364-5.175-2.522 0-5.271 1.74-5.271 5.175 0 3.435 2.758 5.163 5.271 5.163 2.594 0 5.364-1.74 5.364-5.163zm-15.547 5.743c1.194-1.157-.463-3.21-1.959-2.073-.946.925-2.213 1.474-3.554 1.54-3.33-.175-5.086-2.511-5.086-5.175 0-2.664 1.75-5.108 5.086-5.108 1.278-.034 2.509.467 3.38 1.374 1.26 1.113 3.177-.502 1.915-2.01-1.532-1.559-3.336-2.139-5.295-2.139-5.386 0-8.078 3.647-8.078 7.883 0 3.83 2.118 7.085 6.447 7.827-.561.638-.893 1.436-.945 2.273-.407 1.681 2.614 2.577 2.773.414.021-.896.269-1.812.787-2.293.245-.337.832-.563 1.55-.84.929-.357 2.076-.798 2.979-1.673zm-16.474 1.901c2.208 0 2.049-2.861 0-2.861l-6.88-.003V29.68h5.683c2.008 0 2.008-2.858 0-2.858h-5.684v-3.276h6.492c2.029 0 2.074-2.838 0-2.838h-8.077c-.374-.01-.735.13-1 .386-.263.256-.407.606-.397.968v12.405c-.006.36.14.708.402.963.264.255.622.396.995.39h8.466zM89.946 1.741v12.712c0 1.847-3.034 1.89-3.034 0V1.741c.003-1.823 3.034-1.89 3.034 0zm-.434 31.786c1.173 1.682-1.172 3.297-2.525 1.638l-3.401-4.725h-3.533v3.951c0 1.902-2.992 1.966-2.992.044V22.033c-.008-.352.131-.692.386-.943.254-.252.603-.392.966-.39h5.984c5.723 0 6.88 7.424 2.118 9.276l2.997 3.551zm-5.115-5.592c2.93 0 3.109-4.586 0-4.586h-4.344v4.586h4.344zm-14.85-7.424c2.93 0 5.565 1.902 5.565 5.549 0 3.45-2.635 5.371-5.564 5.371h-3.764v2.885c0 .96-.631 1.507-1.442 1.507-.411.003-.806-.156-1.094-.44-.289-.284-.447-.669-.438-1.067V22.033c-.003-.825.68-1.498 1.532-1.508l5.206-.014zm2.693 5.549c0-1.528-1.197-2.795-2.693-2.795h-3.763V28.7h3.763c1.486-.037 2.678-1.2 2.705-2.64h-.012zM66.82 1.74v12.712c0 1.847-3.033 1.89-3.033 0V1.741c0-1.823 3.033-1.89 3.033 0zm-5.027.626c.786-1.85-1.885-2.916-2.804-1.226l-2.037 4.476-2.597 5.876-2.642-5.876-2.043-4.473c-1.011-1.85-3.722-.4-2.824 1.357l6.058 12.306c.874 1.74 2.504 1.403 3.03 0l5.858-12.44zm-1.99 22.556c.09-.098.135-.226.126-.357-.003-.304-.075-.603-.21-.878-.128-.273-.309-.521-.532-.73-.228-.211-.493-.38-.783-.5-.611-.25-1.302-.25-1.912 0-.292.124-.558.3-.784.517-.224.218-.403.476-.527.76-.257.594-.257 1.263 0 1.858.124.282.303.54.527.756.23.222.5.4.799.522.303.126.63.19.96.189.33.003.656-.056.963-.171.296-.114.56-.293.772-.522.047-.045.081-.101.099-.163.018-.06.027-.124.027-.188.001-.12-.046-.237-.132-.325-.08-.09-.2-.141-.323-.139-.067.001-.133.016-.194.044-.067.03-.129.07-.183.118-.132.126-.289.224-.46.29-.182.072-.376.107-.572.105-.163 0-.325-.028-.479-.082-.154-.053-.3-.128-.43-.223-.13-.092-.241-.206-.33-.336-.089-.127-.149-.272-.176-.423h3.401c.13.008.258-.036.354-.122zm-.928-.646h-2.816v-.003c.033-.154.096-.3.186-.43.089-.129.198-.244.323-.342.127-.097.27-.174.422-.226.308-.108.646-.108.954 0 .31.108.576.312.754.58.088.127.148.27.177.42zm-4.516-3.235v5.487c.002.108-.038.212-.114.29-.078.078-.187.12-.299.113-.13.003-.256-.04-.356-.121-.11-.11-.174-.254-.18-.406-.079.087-.168.166-.265.235-.11.077-.229.143-.354.197-.13.058-.267.105-.406.139-.141.035-.286.052-.431.052-.32 0-.635-.064-.928-.188-.292-.12-.559-.293-.786-.508-.229-.217-.413-.474-.545-.756-.273-.592-.273-1.268 0-1.859.265-.57.74-1.025 1.331-1.275.292-.126.608-.191.928-.192.288-.005.573.05.837.16.232.095.437.24.599.426v-1.794c-.007-.125.04-.246.129-.337.204-.168.504-.168.709 0 .09.09.138.212.131.337zm-.97 3.62c.003-.198-.034-.395-.108-.58-.07-.172-.17-.33-.3-.466-.126-.134-.28-.24-.451-.313-.178-.076-.371-.114-.566-.113-.205-.003-.409.036-.598.113-.177.072-.338.179-.473.313-.279.276-.435.648-.436 1.035 0 .383.157.751.436 1.023.136.13.297.235.473.307.19.078.393.117.599.113.194.002.387-.036.565-.113.17-.072.324-.176.452-.307.129-.134.23-.29.299-.46.071-.176.108-.363.108-.552z" clip-rule="evenodd"/>
    <path fill="#4E68CC" fill-rule="evenodd" d="M40 20c0 11.046-8.954 20-20 20S0 31.046 0 20C0 8.955 8.954 0 20 0s20 8.955 20 20z" clip-rule="evenodd"/>
    <path fill="#0E1861" fill-rule="evenodd" d="M33.333 20c0 7.364-5.969 13.333-13.333 13.333-7.363 0-13.333-5.97-13.333-13.333 0-7.364 5.97-13.333 13.333-13.333 7.364 0 13.333 5.97 13.333 13.333z" clip-rule="evenodd"/>
    <path fill="#fff" fill-rule="evenodd" d="M30 14.167c0 2.301-1.866 4.166-4.167 4.166-2.301 0-4.166-1.865-4.166-4.166 0-2.302 1.865-4.167 4.166-4.167 2.3 0 4.167 1.865 4.167 4.167z" clip-rule="evenodd"/>
</svg>
